<?xml version="1.0" standalone="no"?>
<!DOCTYPE svg PUBLIC "-//W3C//DTD SVG 20010904//EN"
 "http://www.w3.org/TR/2001/REC-SVG-20010904/DTD/svg10.dtd">
<svg version="1.0" xmlns="http://www.w3.org/2000/svg"
 width="1024.000000pt" height="1024.000000pt" viewBox="0 0 1024.000000 1024.000000"
 preserveAspectRatio="xMidYMid meet">
<metadata>
Created by potrace 1.14, written by Peter Selinger 2001-2017
</metadata>
<g transform="translate(0.000000,1024.000000) scale(0.100000,-0.100000)"
fill="#000000" stroke="none">
<path d="M5027 5420 c-183 -46 -309 -224 -294 -412 6 -69 20 -108 39 -108 6 0
8 11 4 28 -33 143 -8 257 80 351 34 38 77 71 112 88 50 24 69 27 152 28 84 0
101 -3 149 -28 29 -15 64 -36 77 -46 l25 -20 -22 -3 c-12 -2 -24 -9 -27 -15
-2 -9 11 -13 47 -13 l51 0 0 51 c0 35 -4 49 -12 47 -7 -3 -15 -15 -18 -27 l-5
-23 -23 25 c-41 43 -135 79 -221 83 -42 2 -93 -1 -114 -6z"/>
<path d="M5101 5243 c-14 -28 -131 -340 -131 -351 0 -21 27 -18 88 9 l62 28
64 -28 c98 -45 99 -38 31 146 -81 221 -91 238 -114 196z m48 -120 c13 -38 37
-99 52 -136 23 -57 25 -67 11 -61 -92 39 -99 40 -147 16 -25 -12 -47 -22 -49
-22 -2 0 20 61 48 135 28 74 53 135 56 135 3 0 16 -30 29 -67z"/>
<path d="M5464 5153 c28 -124 10 -240 -51 -320 -47 -62 -78 -88 -143 -120 -49
-24 -66 -27 -150 -27 -102 0 -149 15 -218 67 -32 24 -33 26 -11 29 12 2 24 9
27 16 2 8 -11 12 -47 12 l-51 0 0 -51 c0 -36 4 -49 13 -47 6 3 13 14 15 26 l3
22 22 -21 c12 -12 51 -36 87 -53 59 -28 74 -31 160 -31 86 0 101 3 162 32 84
39 147 103 190 191 30 61 33 74 33 162 0 93 -13 140 -37 140 -6 0 -8 -11 -4
-27z"/>
</g>
</svg>
